<?xml version="1.0" standalone="no"?>
<!DOCTYPE svg PUBLIC "-//W3C//DTD SVG 20010904//EN"
 "http://www.w3.org/TR/2001/REC-SVG-20010904/DTD/svg10.dtd">
<svg version="1.0" xmlns="http://www.w3.org/2000/svg"
 width="640.000000pt" height="1280.000000pt" viewBox="0 0 640.000000 1280.000000"
 preserveAspectRatio="xMidYMid meet">
<metadata>
Created by potrace 1.15, written by Peter Selinger 2001-2017
</metadata>
<g transform="translate(0.000000,1280.000000) scale(0.100000,-0.100000)"
fill="#cfb260" stroke="none">
<path d="M3484 12645 c-12 -8 -24 -12 -27 -9 -3 3 -26 -22 -52 -55 -25 -34
-48 -61 -50 -61 -2 0 2 13 7 28 7 17 8 41 3 58 l-8 29 -17 -39 c-14 -30 -16
-45 -8 -68 9 -26 5 -36 -42 -106 -69 -101 -74 -105 -66 -61 6 36 -9 89 -25 89
-4 0 -11 -20 -14 -44 -5 -33 -3 -50 10 -70 17 -25 16 -27 -35 -111 -29 -47
-55 -85 -57 -85 -2 0 -2 24 2 53 4 40 2 60 -12 86 -26 51 -39 49 -47 -8 -6
-48 7 -101 25 -101 5 0 13 -9 19 -19 8 -15 1 -37 -36 -105 -25 -47 -48 -86
-51 -86 -3 0 -3 22 1 48 3 27 3 62 0 79 -6 33 -48 92 -58 82 -4 -3 -9 -35 -12
-70 -6 -63 -6 -65 30 -107 34 -42 35 -45 22 -75 -43 -100 -62 -137 -68 -137
-5 0 -8 27 -8 60 0 69 -16 115 -52 148 l-26 23 -6 -45 c-11 -72 2 -116 47
-163 l40 -42 -41 -110 c-23 -61 -55 -160 -71 -222 -17 -61 -32 -113 -34 -116
-5 -5 -23 40 -37 92 -18 71 -51 116 -108 148 l-53 30 7 -39 c14 -78 44 -161
66 -182 13 -11 41 -28 63 -38 64 -26 63 -25 49 -116 -7 -46 -16 -109 -19 -142
-4 -32 -10 -54 -15 -50 -4 5 -19 41 -34 81 -37 98 -73 145 -137 177 -29 14
-58 26 -65 26 -25 0 51 -202 89 -238 12 -12 51 -31 87 -44 l65 -23 6 -130 c4
-72 12 -157 18 -189 6 -33 9 -61 7 -63 -6 -6 -51 57 -76 106 -35 70 -114 148
-174 169 -59 22 -126 36 -126 26 0 -4 21 -48 48 -98 76 -145 147 -206 245
-206 15 0 43 -6 61 -14 29 -12 35 -21 46 -67 12 -52 41 -134 74 -212 l17 -38
-28 15 c-15 8 -64 44 -108 80 -43 37 -104 79 -135 94 -49 24 -65 27 -158 26
-56 0 -107 -5 -113 -11 -13 -13 138 -155 215 -202 68 -41 115 -48 195 -27 34
9 79 16 99 16 34 0 39 -4 62 -47 31 -59 123 -199 183 -278 25 -32 44 -61 42
-63 -6 -6 -82 46 -133 92 -66 58 -130 101 -194 131 -43 20 -69 25 -139 25
-100 0 -179 -9 -179 -21 0 -4 51 -53 112 -109 181 -161 265 -194 397 -154 66
19 149 21 166 2 19 -19 188 -268 254 -373 32 -49 66 -103 76 -120 19 -29 19
-30 1 -15 -11 8 -50 52 -88 98 -122 146 -212 221 -304 253 -56 20 -298 48
-310 36 -11 -11 164 -237 250 -322 45 -45 103 -92 131 -105 47 -23 60 -25 207
-25 91 0 161 -4 167 -10 33 -35 339 -621 328 -631 -7 -7 -107 117 -162 201
-143 216 -265 312 -445 349 -100 20 -215 31 -207 20 3 -5 40 -65 82 -134 104
-169 153 -237 225 -308 89 -90 128 -105 285 -113 132 -6 197 -18 227 -41 19
-14 122 -264 188 -453 54 -154 110 -338 105 -343 -10 -10 -103 135 -157 243
-161 322 -275 426 -549 504 -136 38 -149 41 -149 31 0 -4 32 -79 71 -166 102
-232 188 -373 275 -458 60 -58 125 -84 265 -105 141 -21 245 -60 259 -96 28
-73 97 -407 125 -600 20 -139 44 -369 39 -374 -11 -12 -96 201 -124 309 -80
312 -180 484 -345 597 -66 44 -304 167 -312 160 -2 -3 15 -87 37 -188 96 -424
184 -609 331 -696 30 -17 104 -48 165 -68 74 -25 133 -52 180 -84 l69 -47 7
-85 c22 -295 -1 -732 -59 -1099 -16 -97 -18 -102 -24 -65 -13 68 -10 223 7
395 14 137 15 185 6 286 -21 220 -52 306 -167 460 -54 72 -222 254 -234 254
-9 0 -59 -360 -72 -515 -16 -191 4 -393 47 -478 33 -66 99 -139 194 -217 101
-82 146 -130 194 -208 l27 -43 -21 -107 c-48 -244 -128 -533 -217 -788 l-38
-109 -3 109 c-2 81 3 142 22 245 36 200 38 221 37 375 0 231 -29 330 -146 505
-75 113 -211 278 -220 269 -5 -5 -78 -344 -100 -463 -22 -118 -31 -412 -16
-486 23 -110 64 -175 182 -292 127 -127 166 -173 204 -245 l28 -52 -48 -123
c-81 -205 -171 -401 -293 -641 -92 -181 -118 -224 -120 -202 -5 45 27 230 54
309 68 197 113 432 114 590 0 176 -74 363 -246 621 -33 50 -55 74 -58 65 -3
-8 -19 -54 -37 -104 -144 -413 -188 -583 -196 -772 -4 -93 -2 -147 7 -180 22
-82 78 -176 171 -289 84 -101 148 -209 164 -276 8 -30 -1 -48 -143 -283 -141
-234 -409 -631 -419 -621 -7 7 27 158 51 226 13 36 46 128 74 205 83 232 123
476 101 614 -20 130 -114 356 -223 536 l-35 59 -11 -29 c-6 -15 -44 -105 -84
-199 -146 -341 -210 -553 -222 -736 -10 -152 24 -252 142 -415 102 -141 115
-164 143 -242 l29 -77 -91 -121 c-154 -204 -372 -469 -555 -674 l-23 -26 6 40
c13 87 60 227 120 360 106 237 157 414 171 596 8 107 -5 184 -58 339 -41 118
-152 360 -165 359 -9 0 -169 -330 -233 -478 -55 -127 -115 -310 -130 -397 -7
-39 -11 -111 -8 -165 6 -119 31 -183 139 -349 62 -97 87 -146 111 -222 l31
-98 -39 -47 c-61 -75 -652 -664 -832 -829 -309 -283 -339 -308 -422 -353 -114
-61 -150 -94 -150 -138 0 -75 117 -232 186 -249 36 -9 83 26 186 138 51 55
127 127 169 159 224 171 764 712 1094 1096 l79 93 40 -7 c103 -15 194 -47 322
-112 173 -87 236 -105 363 -99 119 6 230 41 416 132 122 60 205 108 468 269
l108 66 -48 21 c-80 36 -303 107 -393 126 -121 25 -254 23 -365 -5 -161 -41
-337 -118 -530 -232 -78 -46 -263 -124 -339 -143 -36 -9 -50 -29 159 230 88
110 198 252 245 316 53 74 92 118 103 118 64 1 185 -38 317 -100 216 -103 305
-118 456 -80 194 49 356 134 776 406 59 38 107 72 108 75 0 9 -118 52 -241 88
-300 86 -463 81 -721 -23 -115 -46 -169 -74 -313 -161 -66 -40 -139 -82 -163
-94 -39 -20 -196 -81 -208 -81 -3 0 15 28 40 62 25 35 108 157 183 272 l138
209 120 -6 c88 -4 143 -13 204 -31 47 -14 122 -31 167 -38 181 -26 355 35 639
225 98 65 446 329 441 334 -9 9 -188 34 -306 42 -187 14 -302 2 -427 -45 -164
-60 -308 -143 -518 -296 -44 -32 -133 -86 -199 -120 -101 -51 -118 -57 -105
-37 44 67 196 333 270 472 l84 159 115 -5 c91 -4 137 -12 220 -37 83 -26 129
-33 220 -37 105 -5 122 -3 195 22 165 55 352 171 657 408 109 85 164 133 156
138 -7 4 -62 15 -123 25 -141 23 -436 26 -510 5 -162 -46 -369 -155 -546 -288
-122 -90 -196 -136 -300 -185 l-77 -36 75 154 c41 85 96 205 122 267 l48 112
49 12 c63 16 125 18 320 8 148 -7 166 -6 230 13 167 51 360 212 693 580 l83
92 -113 0 c-184 0 -369 -26 -472 -67 -55 -22 -177 -95 -252 -152 -33 -24 -132
-115 -220 -201 -157 -153 -316 -282 -300 -244 45 112 132 350 174 475 l52 156
57 18 c40 12 114 19 247 25 213 8 272 22 373 86 65 42 230 200 317 304 94 113
297 382 292 387 -7 6 -197 -16 -291 -33 -95 -18 -226 -58 -281 -87 -120 -61
-284 -208 -430 -387 -96 -117 -261 -287 -271 -278 -2 3 7 42 21 89 29 103 66
254 100 419 15 69 32 128 38 132 37 24 177 58 282 68 144 13 191 24 275 63 82
38 222 176 332 327 77 107 293 449 287 454 -6 5 -216 -41 -289 -62 -103 -30
-217 -79 -268 -114 -123 -85 -275 -255 -407 -456 -75 -115 -215 -273 -215
-243 0 10 4 41 10 70 14 75 48 352 56 456 4 50 11 96 17 103 5 6 6 12 1 12 -5
0 -6 74 -3 167 9 261 -1 506 -32 773 -23 209 -25 190 20 242 23 26 78 72 122
103 151 106 198 173 237 335 27 112 39 227 48 440 l7 174 -39 -31 c-65 -52
-209 -204 -247 -260 -64 -95 -110 -261 -127 -458 -14 -168 -41 -325 -51 -299
-4 10 -19 82 -33 159 -15 77 -38 189 -52 248 -26 108 -26 109 -8 145 11 19 63
82 116 139 141 151 168 220 168 437 0 114 -37 474 -50 489 -8 9 -91 -89 -147
-173 -119 -177 -140 -298 -121 -720 9 -188 16 -195 -67 65 -23 72 -58 173 -77
225 l-36 96 28 59 c15 33 53 92 85 130 116 142 140 235 112 446 -16 116 -87
439 -98 439 -10 0 -130 -208 -155 -269 -52 -129 -55 -279 -10 -518 23 -118 40
-263 32 -263 -2 0 -14 26 -27 58 -12 31 -60 140 -107 242 l-84 184 17 56 c9
30 41 93 71 140 29 47 60 105 69 129 19 56 19 171 -1 269 -15 77 -119 400
-133 415 -10 10 -104 -191 -127 -268 -13 -48 -16 -83 -11 -180 6 -116 13 -152
69 -345 14 -47 28 -110 32 -140 l6 -55 -42 78 c-24 43 -86 153 -139 244 -112
192 -110 181 -36 338 40 86 42 94 41 180 -1 69 -7 107 -27 161 -29 84 -149
344 -158 344 -11 0 -59 -142 -76 -224 -14 -69 -14 -92 -4 -155 14 -82 52 -204
84 -266 22 -45 68 -175 61 -175 -2 0 -37 51 -77 113 -40 61 -115 169 -165 240
-51 70 -92 132 -92 138 0 18 29 66 80 133 60 81 74 127 67 228 -5 81 -56 328
-67 328 -8 0 -84 -133 -105 -184 -28 -66 -30 -167 -6 -303 11 -66 21 -138 21
-158 l0 -37 -72 93 c-40 52 -94 121 -120 154 -26 33 -61 81 -77 107 l-30 48
37 37 c21 21 61 57 89 80 39 32 57 56 72 98 20 54 41 218 41 325 l0 54 -66
-64 c-109 -108 -134 -170 -153 -378 -6 -62 -14 -120 -19 -128 -24 -42 -164
315 -176 448 -2 19 -6 40 -10 47 -14 23 -19 295 -7 401 16 138 41 263 55 272
6 4 36 5 68 1 49 -5 62 -2 100 20 24 14 68 51 98 82 l55 57 -65 -7 c-85 -9
-114 -22 -184 -84 -52 -45 -76 -60 -76 -47 0 2 14 50 31 106 37 127 106 302
122 312 7 4 34 8 60 8 46 0 53 4 110 60 l62 60 -38 0 c-47 0 -86 -20 -143 -72
-24 -22 -44 -37 -44 -32 0 5 19 48 42 96 l41 88 61 0 c57 0 64 3 119 46 31 25
57 50 57 55 0 14 -66 11 -103 -5 -18 -7 -52 -30 -75 -50 -24 -20 -45 -36 -47
-36 -2 0 19 41 47 90 l50 90 44 0 c37 0 51 6 82 35 l37 34 -36 1 c-24 0 -49
-10 -79 -32 l-45 -33 23 35 c12 19 37 58 54 87 31 50 33 51 74 50 30 -1 49 4
61 16 16 16 16 17 -16 17 -18 0 -41 -5 -52 -10 -10 -6 -19 -8 -19 -5 0 3 28
44 62 90 54 75 65 85 92 85 17 0 45 9 61 20 l30 20 -30 0 c-17 0 -40 -7 -51
-15z"/>
<path d="M2704 11737 c10 -96 22 -124 73 -158 24 -17 46 -29 49 -27 4 5 -12
106 -22 141 -7 24 -61 85 -87 99 -19 10 -20 8 -13 -55z"/>
<path d="M3077 11756 c-35 -13 -76 -38 -136 -85 l-25 -19 56 -7 c64 -8 107 9
181 74 l46 39 -31 6 c-40 8 -47 7 -91 -8z"/>
<path d="M3015 11338 c-38 -13 -86 -48 -159 -115 l-58 -53 72 0 c39 0 85 6
103 14 37 15 127 94 158 137 l20 29 -53 -1 c-29 0 -66 -5 -83 -11z"/>
<path d="M3110 11097 c-101 -42 -161 -102 -224 -227 -27 -52 -56 -103 -64
-113 -21 -24 -9 -31 25 -14 15 8 44 18 63 22 57 12 106 42 139 84 31 39 147
268 140 276 -3 2 -38 -11 -79 -28z"/>
<path d="M5169 7537 c-288 -159 -386 -284 -504 -641 -29 -89 -72 -200 -95
-245 -23 -46 -39 -85 -37 -88 3 -2 29 14 58 36 30 23 103 61 163 87 163 68
217 108 280 207 43 67 104 203 139 312 26 81 107 366 107 378 0 13 -16 7 -111
-46z"/>
<path d="M5370 6861 c-207 -72 -289 -119 -390 -220 -96 -97 -172 -207 -267
-385 -35 -66 -91 -156 -124 -200 -33 -43 -58 -80 -56 -82 2 -3 37 11 78 31 41
19 111 42 159 50 237 44 329 107 468 315 51 77 282 514 282 535 0 9 -10 6
-150 -44z"/>
</g>
</svg>
